# xmcd
#
# Track frame offsets: 
#        150
#        47225
#        90975
#        122965
#        146617
#        179097
#        220622
#        255845
#        286677
#        325037
#
# Disc length: 4694 seconds
#
# Revision: 0
# Processed by: cddbd v1.5.2PL0 Copyright (c) Steve Scherf et al.
# Submitted via: ExactAudioCopy v0.99pb4
#
DISCID=8912540a
DTITLE=Black Music From Jirokichi - Black Music From Jirokichi
DYEAR=1996
DGENRE=Blues
TTITLE0=Snap Step
TTITLE1=SRB
TTITLE2=Hotel Domingo
TTITLE3=I'm Always Be In Your Love With You
TTITLE4=Never Forget Your Love
TTITLE5=Celebrating Blues
TTITLE6=Valdez In The Country
TTITLE7=For Sentimental Reasons
TTITLE8=Got My Mojo Working
TTITLE9=Jirokichi Blues
EXTD=
EXTT0=
EXTT1=
EXTT2=
EXTT3=
EXTT4=
EXTT5=
EXTT6=
EXTT7=
EXTT8=
EXTT9=
PLAYORDER=
